<svg width="48" height="48" viewBox="0 0 61 61" fill="none" xmlns="http://www.w3.org/2000/svg">
<circle cx="30.5" cy="30.5" r="30" fill="#FFA400" stroke="black"/>
<path d="M23.42 31L20.76 32.78V29.22L23.42 31ZM29.94 26.64V21.68L21.62 27.24L25.32 29.72L29.94 26.64ZM40.4 27.24L32.06 21.68V26.64L36.68 29.72L40.4 27.24ZM21.62 34.76L29.94 40.32V35.36L25.32 32.28L21.62 34.76ZM32.06 35.36V40.32L40.4 34.76L36.68 32.28L32.06 35.36ZM31 28.48L27.24 31L31 33.52L34.76 31L31 28.48ZM51 31C51 42 42 51 31 51C20 51 11 42 11 31C11 20 20 11 31 11C42 11 51 20 51 31ZM43.36 27.24C43.36 27.18 43.36 27.14 43.36 27.1L43.34 27L43.32 26.9C43.3 26.88 43.3 26.86 43.28 26.82L43.26 26.78L43.22 26.7L43.2 26.66L43.16 26.6L43.12 26.54L43.06 26.48L43 26.44V26.4L42.92 26.36L42.9 26.34L31.6 18.82C31.24 18.58 30.78 18.58 30.42 18.82L19.1 26.34V26.36L19 26.4C19 26.42 19 26.44 19 26.44L18.94 26.48L18.88 26.54L18.86 26.6L18.8 26.66L18.78 26.7L18.74 26.78L18.72 26.82L18.68 26.9V27H18.66L18.64 27.1C18.64 27.14 18.64 27.18 18.64 27.24V34.76C18.64 34.82 18.64 34.86 18.64 34.9L18.66 35H18.68V35.1C18.7 35.12 18.7 35.14 18.72 35.18L18.74 35.22L18.78 35.3L18.8 35.34L18.84 35.4L18.88 35.46C18.9 35.48 18.92 35.5 18.94 35.52L19 35.56V35.6L19.08 35.64L19.1 35.66L30.42 43.2C30.58 43.32 30.8 43.36 31 43.36C31.2 43.36 31.42 43.3 31.6 43.2L42.9 35.66L42.92 35.64L43 35.6V35.56L43.06 35.52L43.12 35.46L43.16 35.4L43.2 35.34L43.22 35.3L43.26 35.22L43.28 35.18L43.32 35.1V35H43.34L43.36 34.9C43.36 34.86 43.36 34.82 43.36 34.76V27.24ZM41.24 32.78V29.22L38.58 31L41.24 32.78Z" fill="black"/>
</svg>
