<svg width="48" height="48" viewBox="0 0 63 63" fill="none" xmlns="http://www.w3.org/2000/svg">
<circle cx="31.5" cy="31.5" r="30.5" fill="#FFA400" stroke="black"/>
<rect x="8.28677" y="8" width="48" height="48" rx="24" transform="rotate(0.342314 8.28677 8)" fill="#FFA400"/>
<path d="M32.2624 12.1433C29.6361 12.1276 27.0323 12.6294 24.5998 13.62C22.1673 14.6106 19.9538 16.0705 18.0856 17.9166C14.3125 21.6448 12.175 26.7192 12.1433 32.0235C12.0905 40.8633 17.7856 48.3975 25.7096 51.1049C26.7086 51.2708 27.0323 50.6528 27.0355 50.1128C27.0383 49.6528 27.0458 48.3928 27.0557 46.7328C21.5086 47.8997 20.3518 44.0127 20.3518 44.0127C19.4457 41.6873 18.1494 41.0595 18.1494 41.0595C16.3369 39.8087 18.2966 39.8604 18.2966 39.8604C20.2957 40.0123 21.3442 41.9386 21.3442 41.9386C23.066 44.989 26.0114 44.1065 27.1542 43.6334C27.342 42.3345 27.8672 41.4576 28.4302 40.9609C23.9933 40.4344 19.3436 38.6866 19.3892 31.0668C19.4024 28.8468 20.173 27.0714 21.4815 25.6592C21.2845 25.158 20.5969 23.0738 21.713 20.3804C21.713 20.3804 23.3962 19.8505 27.2008 22.4533C28.7834 22.0227 30.5046 21.813 32.2046 21.8232C33.9046 21.8333 35.6232 22.0636 37.2006 22.513C41.0359 19.9559 42.7127 20.5059 42.7127 20.5059C43.7965 23.2124 43.0841 25.2882 42.8811 25.787C44.1726 27.2148 44.922 28.9993 44.9087 31.2192C44.8631 38.8591 40.1731 40.5111 35.7102 40.9844C36.4265 41.6087 37.0792 42.8326 37.0681 44.6926C37.0521 47.3726 37.0392 49.5325 37.0353 50.1725C37.0321 50.7125 37.3483 51.3544 38.3693 51.1805C46.3252 48.548 52.0898 41.1023 52.1426 32.2625C52.1583 29.6361 51.6565 27.0323 50.6659 24.5998C49.6754 22.1674 48.2154 19.9538 46.3693 18.0856C44.5233 16.2173 42.3273 14.731 39.9069 13.7114C37.4864 12.6919 34.8888 12.159 32.2624 12.1433Z" fill="black"/>
<rect x="8.28677" y="8" width="48" height="48" rx="24" transform="rotate(0.342314 8.28677 8)" stroke="black"/>
</svg>
