<svg width="48" height="48" viewBox="0 0 61 61" fill="none" xmlns="http://www.w3.org/2000/svg">
<circle cx="30.5" cy="30.5" r="30" fill="#FBA92C" stroke="black"/>
<path d="M22.6 11H39.4C45.8 11 51 16.2 51 22.6V39.4C51 42.4765 49.7779 45.427 47.6024 47.6024C45.427 49.7779 42.4765 51 39.4 51H22.6C16.2 51 11 45.8 11 39.4V22.6C11 19.5235 12.2221 16.573 14.3976 14.3976C16.573 12.2221 19.5235 11 22.6 11ZM22.2 15C20.2904 15 18.4591 15.7586 17.1088 17.1088C15.7586 18.4591 15 20.2904 15 22.2V39.8C15 43.78 18.22 47 22.2 47H39.8C41.7096 47 43.5409 46.2414 44.8912 44.8912C46.2414 43.5409 47 41.7096 47 39.8V22.2C47 18.22 43.78 15 39.8 15H22.2ZM41.5 18C42.163 18 42.7989 18.2634 43.2678 18.7322C43.7366 19.2011 44 19.837 44 20.5C44 21.163 43.7366 21.7989 43.2678 22.2678C42.7989 22.7366 42.163 23 41.5 23C40.837 23 40.2011 22.7366 39.7322 22.2678C39.2634 21.7989 39 21.163 39 20.5C39 19.837 39.2634 19.2011 39.7322 18.7322C40.2011 18.2634 40.837 18 41.5 18ZM31 21C33.6522 21 36.1957 22.0536 38.0711 23.9289C39.9464 25.8043 41 28.3478 41 31C41 33.6522 39.9464 36.1957 38.0711 38.0711C36.1957 39.9464 33.6522 41 31 41C28.3478 41 25.8043 39.9464 23.9289 38.0711C22.0536 36.1957 21 33.6522 21 31C21 28.3478 22.0536 25.8043 23.9289 23.9289C25.8043 22.0536 28.3478 21 31 21ZM31 25C29.4087 25 27.8826 25.6321 26.7574 26.7574C25.6321 27.8826 25 29.4087 25 31C25 32.5913 25.6321 34.1174 26.7574 35.2426C27.8826 36.3679 29.4087 37 31 37C32.5913 37 34.1174 36.3679 35.2426 35.2426C36.3679 34.1174 37 32.5913 37 31C37 29.4087 36.3679 27.8826 35.2426 26.7574C34.1174 25.6321 32.5913 25 31 25Z" fill="black"/>
</svg>
