<svg width="48" height="48" viewBox="0 0 61 61" fill="none" xmlns="http://www.w3.org/2000/svg">
<circle cx="30.5" cy="30.5" r="30" fill="#FFA400" stroke="black"/>
<path d="M42.5556 15C43.4691 15 44.3452 15.3746 44.9911 16.0414C45.6371 16.7082 46 17.6126 46 18.5556V43.4444C46 44.3874 45.6371 45.2918 44.9911 45.9586C44.3452 46.6254 43.4691 47 42.5556 47H18.4444C17.5309 47 16.6548 46.6254 16.0089 45.9586C15.3629 45.2918 15 44.3874 15 43.4444V18.5556C15 17.6126 15.3629 16.7082 16.0089 16.0414C16.6548 15.3746 17.5309 15 18.4444 15H42.5556ZM41.6944 42.5556V33.1333C41.6944 31.5963 41.1029 30.1221 40.05 29.0353C38.9971 27.9484 37.569 27.3378 36.08 27.3378C34.6161 27.3378 32.9111 28.2622 32.0844 29.6489V27.6756H27.2794V42.5556H32.0844V33.7911C32.0844 32.4222 33.1522 31.3022 34.4783 31.3022C35.1178 31.3022 35.7311 31.5644 36.1832 32.0312C36.6354 32.498 36.8894 33.131 36.8894 33.7911V42.5556H41.6944ZM21.6822 24.8844C22.4496 24.8844 23.1855 24.5698 23.7281 24.0097C24.2707 23.4496 24.5756 22.6899 24.5756 21.8978C24.5756 20.2444 23.2839 18.8933 21.6822 18.8933C20.9103 18.8933 20.17 19.2099 19.6241 19.7733C19.0783 20.3368 18.7717 21.1009 18.7717 21.8978C18.7717 23.5511 20.0806 24.8844 21.6822 24.8844ZM24.0761 42.5556V27.6756H19.3056V42.5556H24.0761Z" fill="black"/>
</svg>