<svg width="48" height="48" viewBox="0 0 61 61" fill="none" xmlns="http://www.w3.org/2000/svg">
<rect x="0.5" y="0.5" width="60" height="60" rx="30" fill="#FBA92C"/>
<path d="M30.5 26.1039C32.56 26.1039 34.24 27.7012 34.24 29.698C34.24 31.5996 32.56 33.216 30.5 33.216C28.44 33.216 26.76 31.5996 26.76 29.698C26.76 27.7012 28.44 26.1039 30.5 26.1039ZM21.24 44.9111C22.5 45.6337 25.26 44.5308 28.44 41.6783C27.4 40.5563 26.38 39.3393 25.42 38.0652C23.78 37.913 22.16 37.6849 20.62 37.3806C19.6 41.4501 19.98 44.2455 21.24 44.9111ZM22.66 33.9957L22.08 33.0258C21.86 33.5773 21.64 34.1288 21.5 34.6612C22.04 34.7753 22.64 34.8704 23.26 34.9655C23.06 34.6422 22.86 34.3189 22.66 33.9957ZM35.74 32.5504L37.36 29.698L35.74 26.8455C35.14 25.8376 34.5 24.9439 33.92 24.0501C32.84 23.993 31.7 23.993 30.5 23.993C29.3 23.993 28.16 23.993 27.08 24.0501C26.5 24.9439 25.86 25.8376 25.26 26.8455L23.64 29.698L25.26 32.5504C25.86 33.5583 26.5 34.4521 27.08 35.3458C28.16 35.4029 29.3 35.4029 30.5 35.4029C31.7 35.4029 32.84 35.4029 33.92 35.3458C34.5 34.4521 35.14 33.5583 35.74 32.5504ZM30.5 19.7714C30.12 20.1898 29.72 20.6271 29.32 21.1406C29.72 21.1406 30.1 21.1406 30.5 21.1406C30.9 21.1406 31.28 21.1406 31.68 21.1406C31.28 20.6271 30.88 20.1898 30.5 19.7714ZM30.5 39.6245C30.88 39.2062 31.28 38.7688 31.68 38.2553C31.28 38.2553 30.9 38.2553 30.5 38.2553C30.1 38.2553 29.72 38.2553 29.32 38.2553C29.72 38.7688 30.12 39.2062 30.5 39.6245ZM39.74 14.4848C38.5 13.7622 35.74 14.8652 32.56 17.7176C33.6 18.8396 34.62 20.0567 35.58 21.3308C37.22 21.4829 38.84 21.7111 40.38 22.0153C41.4 17.9458 41.02 15.1504 39.74 14.4848ZM38.34 25.4003L38.92 26.3701C39.14 25.8186 39.36 25.2671 39.5 24.7347C38.96 24.6206 38.36 24.5255 37.74 24.4304C37.94 24.7537 38.14 25.077 38.34 25.4003ZM41.24 11.9937C44.18 13.5911 44.5 17.7937 43.26 22.6999C48.34 24.1262 52 26.4842 52 29.698C52 32.9117 48.34 35.2698 43.26 36.696C44.5 41.6022 44.18 45.8048 41.24 47.4022C38.32 48.9996 34.34 47.174 30.5 43.694C26.66 47.174 22.68 48.9996 19.74 47.4022C16.82 45.8048 16.5 41.6022 17.74 36.696C12.66 35.2698 9 32.9117 9 29.698C9 26.4842 12.66 24.1262 17.74 22.6999C16.5 17.7937 16.82 13.5911 19.74 11.9937C22.68 10.3963 26.66 12.2219 30.5 15.7019C34.34 12.2219 38.32 10.3963 41.24 11.9937ZM40.66 29.698C41.34 31.1242 41.94 32.5504 42.44 33.9957C46.64 32.7976 49 31.0862 49 29.698C49 28.3098 46.64 26.5983 42.44 25.4003C41.94 26.8455 41.34 28.2717 40.66 29.698ZM20.34 29.698C19.66 28.2717 19.06 26.8455 18.56 25.4003C14.36 26.5983 12 28.3098 12 29.698C12 31.0862 14.36 32.7976 18.56 33.9957C19.06 32.5504 19.66 31.1242 20.34 29.698ZM38.34 33.9957C38.14 34.3189 37.94 34.6422 37.74 34.9655C38.36 34.8704 38.96 34.7753 39.5 34.6612C39.36 34.1288 39.14 33.5773 38.92 33.0258L38.34 33.9957ZM32.56 41.6783C35.74 44.5308 38.5 45.6337 39.74 44.9111C41.02 44.2455 41.4 41.4501 40.38 37.3806C38.84 37.6849 37.22 37.913 35.58 38.0652C34.62 39.3393 33.6 40.5563 32.56 41.6783ZM22.66 25.4003C22.86 25.077 23.06 24.7537 23.26 24.4304C22.64 24.5255 22.04 24.6206 21.5 24.7347C21.64 25.2671 21.86 25.8186 22.08 26.3701L22.66 25.4003ZM28.44 17.7176C25.26 14.8652 22.5 13.7622 21.24 14.4848C19.98 15.1504 19.6 17.9458 20.62 22.0153C22.16 21.7111 23.78 21.4829 25.42 21.3308C26.38 20.0567 27.4 18.8396 28.44 17.7176Z" fill="black"/>
<rect x="0.5" y="0.5" width="60" height="60" rx="30" stroke="black"/>
</svg>
