<svg width="61" height="61" viewBox="0 0 61 61" fill="none" xmlns="http://www.w3.org/2000/svg">
<circle cx="30.5" cy="30.5" r="30" fill="#FFA400" stroke="black"/>
<path d="M31 11C33.6264 11 36.2272 11.5173 38.6537 12.5224C41.0802 13.5275 43.285 15.0007 45.1421 16.8579C46.9993 18.715 48.4725 20.9198 49.4776 23.3463C50.4827 25.7728 51 28.3736 51 31C51 36.3043 48.8929 41.3914 45.1421 45.1421C41.3914 48.8929 36.3043 51 31 51C28.3736 51 25.7728 50.4827 23.3463 49.4776C20.9198 48.4725 18.715 46.9993 16.8579 45.1421C13.1071 41.3914 11 36.3043 11 31C11 25.6957 13.1071 20.6086 16.8579 16.8579C20.6086 13.1071 25.6957 11 31 11ZM27 37.66C27.32 38.74 27.28 39.74 27 40.66C27 40.76 26.92 40.86 26.88 41C26.84 41 26.8 41.14 26.74 41.24C26.52 41.72 26.2 42.18 25.82 42.58C24.66 43.86 23 44.34 22.34 43.94C21.58 43.5 22 41.7 23.32 40.28C24.76 38.76 26.84 37.76 26.84 37.76L27 37.66ZM43.54 19.56C42.64 16 36.74 14.84 31.18 16.82C27.86 18 24.26 19.84 21.68 22.26C18.62 25.14 18.12 27.64 18.32 28.68C19 32.36 24.08 34.78 26.16 36.56V36.58C25.56 36.88 21.08 39.14 20 41.46C18.92 43.9 20.2 45.66 21 45.9C23.68 46.62 26.38 45.32 27.82 43.14C29.22 41.06 29.12 38.36 28.5 37C29.34 36.8 30.32 36.7 31.56 36.84C35.08 37.26 35.76 39.44 35.62 40.36C35.5 41.28 34.76 41.78 34.52 41.94C34.28 42.08 34.2 42.14 34.22 42.26C34.24 42.42 34.36 42.42 34.56 42.38C34.86 42.32 36.42 41.64 36.48 39.94C36.56 37.78 34.5 35.38 30.86 35.44C29.36 35.48 28.42 35.62 27.74 35.88L27.58 35.7C25.32 33.3 21.16 31.6 21.34 28.36C21.4 27.18 21.8 24.1 29.34 20.34C35.5 17.26 40.44 18.1 41.3 20C42.52 22.66 38.66 27.64 32.26 28.36C29.82 28.64 28.52 27.68 28.2 27.34C27.86 27 27.82 26.94 27.7 27C27.48 27.14 27.62 27.46 27.7 27.66C27.88 28.16 28.68 29 30 29.48C31.18 29.86 34.06 30.08 37.52 28.74C41.4 27.24 44.44 23.06 43.54 19.56Z" fill="black"/>
</svg>
